<?xml version="1.0" standalone="no"?>
<!DOCTYPE svg PUBLIC "-//W3C//DTD SVG 20010904//EN"
 "http://www.w3.org/TR/2001/REC-SVG-20010904/DTD/svg10.dtd">
<svg version="1.0" xmlns="http://www.w3.org/2000/svg"
 width="261.000000pt" height="260.000000pt" viewBox="0 0 261.000000 260.000000"
 preserveAspectRatio="xMidYMid meet">
<metadata>
Created by potrace 1.16, written by Peter Selinger 2001-2019
</metadata>
<g transform="translate(0.000000,260.000000) scale(0.100000,-0.100000)"
fill="#000000" stroke="none">
<path d="M0 1300 l0 -1300 1305 0 1305 0 0 1300 0 1300 -1305 0 -1305 0 0
-1300z m1281 505 c40 -159 113 -277 204 -331 92 -54 261 -94 459 -110 101 -8
96 -16 -19 -33 -319 -48 -478 -128 -550 -276 -37 -75 -72 -228 -86 -372 -7
-70 -15 -134 -19 -141 -3 -7 -12 29 -19 80 -15 109 -33 188 -62 284 -72 233
-193 323 -489 365 -47 6 -114 17 -150 24 l-65 12 75 13 c263 44 414 102 491
188 84 94 128 241 151 506 l12 140 23 -135 c13 -74 32 -170 44 -214z"/>
<path d="M1182 1483 c-18 -9 -45 -32 -60 -51 -36 -47 -39 -145 -6 -188 33 -45
70 -67 121 -71 153 -15 240 169 131 274 -56 54 -123 67 -186 36z m155 -44 c28
-27 53 -77 53 -110 0 -36 -32 -90 -64 -110 -35 -22 -100 -25 -136 -6 -88 45
-93 184 -7 238 43 27 117 21 154 -12z"/>
</g>
</svg>
